<svg xmlns="http://www.w3.org/2000/svg" width="40.62" height="53.547" viewBox="0 0 40.62 53.547">
  <path id="Path_7" data-name="Path 7" d="M19.4.254a.6.6,0,0,1,.846.3c.111.281-.081.537-.238.754a13.079,13.079,0,0,0-2.2,5.215.394.394,0,0,0-.207.512c.1.037.21.07.316.1a22.315,22.315,0,0,1,6.488.3,20.333,20.333,0,0,1,10.281,5.44,19.669,19.669,0,0,1,4.15,22.267,41.74,41.74,0,0,1-17.6,18.513.63.63,0,0,1-.771-.124.673.673,0,0,1,.08-.84,12.98,12.98,0,0,0,2.143-4.727,3.644,3.644,0,0,0,.147-1.068c-.126-.161-.335-.112-.512-.107a20.664,20.664,0,0,1-10.883-1.895,20.208,20.208,0,0,1-8.654-7.848A19.439,19.439,0,0,1,0,26.721a19.706,19.706,0,0,1,2.554-9.489A41.661,41.661,0,0,1,19.4.254m-.208,18.991a7.988,7.988,0,0,0-5.48,3.375,7.693,7.693,0,0,0,.831,9.68,8.014,8.014,0,0,0,10.037,1.211,7.8,7.8,0,0,0,3.313-4.285,7.716,7.716,0,0,0-2.83-8.5A8.024,8.024,0,0,0,19.193,19.245Z" transform="translate(0.002 -0.182)" fill="#fff"/>
</svg>
