<svg xmlns="http://www.w3.org/2000/svg" width="46.004" height="53.428" viewBox="0 0 46.004 53.428">
  <g id="epic-games-2" transform="translate(0 -0.9)">
    <path id="Path_10" data-name="Path 10" d="M41.834.9H4.17C1.134.9,0,2.034,0,5.087V41.933a8.708,8.708,0,0,0,.05.967,3.211,3.211,0,0,0,.7,2.052c.067.067.7.55.7.55.334.167.567.284.951.45l18.532,7.773a4.311,4.311,0,0,0,2.068.6,4.131,4.131,0,0,0,2.068-.6L43.6,45.953a10.107,10.107,0,0,0,.951-.45s.634-.467.7-.55a3.211,3.211,0,0,0,.7-2.052,8.708,8.708,0,0,0,.05-.967V5.087C46,2.034,44.886.9,41.834.9" transform="translate(0)" fill="#fff"/>
    <path id="Path_11" data-name="Path 11" d="M72.127,72.524l-.017.083-.017.1-.017.083-.033.083-.017.083-.033.083-.033.083-.033.067-.033.083-.05.067-.05.067-.05.067-.05.067-.05.067-.067.067-.05.05-.067.067-.067.05-.067.05-.067.033-.067.05-.083.05-.083.033-.083.05-.083.033-.083.033-.083.033v-.017l-.083.033-.083.017-.15.033-.083.017-.083.017-.083.017-.083.017-.1.017-.083.017h-.334l-.083-.017h-.1l-.083-.017-.083-.017-.1-.017-.083-.017-.083-.017-.083-.017-.083-.017-.083-.017-.083-.017-.083-.033-.083-.017-.083-.033-.083-.033-.083-.033-.083-.033-.083-.033-.083-.033-.083-.033-.083-.033-.083-.033-.083-.033-.083-.05-.067-.05-.083-.05-.067-.05-.067-.05-.067-.05-.067-.05-.067-.05-.067-.05-.067-.05-.067-.067.05-.067.067-.067.05-.067.067-.067.05-.067.05-.067.067-.067.05-.067.067-.067.05-.067.067-.067.05-.067.05-.067.067-.067.05-.067.067-.067.05-.067.067.05.083.05.067.05.083.05.067.05.083.05.067.05.083.033.067.05.083.033.083.033.083.033.083.033.083.033.083.033.083.033.083.033.083.017.167.033.1.017.083.017h.083l.1.017h.183l.1-.017.083-.017.083-.017.083-.017.067-.033.067-.033.067-.05.05-.067.033-.067.033-.083.017-.083v-.017l-.017-.1-.033-.083-.05-.067-.067-.05-.067-.05-.067-.033-.083-.033-.083-.033-.1-.05-.067-.017-.067-.017-.083-.033-.083-.017-.083-.033-.083-.017-.1-.033-.083-.017-.1-.033-.083-.017-.083-.033-.083-.017-.083-.033-.083-.033-.083-.017-.083-.033-.083-.033-.083-.033-.1-.033-.083-.033-.083-.033-.083-.033-.083-.05-.083-.05-.067-.05-.083-.05-.067-.05-.067-.05-.067-.05-.067-.067-.067-.067-.05-.067-.05-.067-.05-.067-.05-.067-.05-.083-.033-.067-.033-.067-.017-.083-.033-.067-.017-.083-.017-.083-.017-.083-.017-.083-.017-.1v-.2l.017-.083.017-.083.017-.083.017-.083.017-.083.033-.083.017-.083.033-.083.033-.083.033-.083.05-.083.05-.083.05-.067.05-.067.067-.067.067-.067.067-.067.067-.067.067-.05.067-.05.067-.05.067-.05.083-.05.083-.033.083-.05.083-.033.083-.033.083-.033.083-.033.067-.017.083-.017.083-.017.083-.017.083-.017.083-.017.083-.017.083-.017.083-.017h.367l.1.017.1.017h.083l.1.017.083.017.1.017.083.017.083.017.083.017.083.017.083.017.083.033.083.033.083.017.083.033.083.033.083.033.083.033.083.033.083.05.067.033.083.05.083.05.067.05.083.05.067.05.067.05.067.05.067.05-.05.067-.05.067-.05.067-.05.067-.05.083-.05.067-.05.067L71.71,69l-.05.067-.05.067-.05.067-.05.067-.05.083-.05.067-.05.067-.167.367-.05.067-.067-.05-.083-.05-.067-.05-.067-.05-.083-.033-.067-.05-.083-.033-.067-.033-.083-.033-.067-.033-.083-.033-.067-.033-.1-.033-.083-.033-.083-.033-.083-.017-.05.033-.083-.017-.083-.017-.083-.017-.083-.017h-.183l-.1.017-.083.017-.083.017-.067.033-.067.033-.083.067-.05.083-.033.083-.017.083v.017l.017.117.033.1.033.05.067.067.083.05.067.05.083.033.1.033.1.033.067.017.067.033.083.017.083.033.083.017.1.033.1.033.1.033.1.017.083.033.1.033.083.017.083.033.083.033.083.033.083.033.083.033.083.017.1.033.083.05.083.033.083.05.083.05.083.05.067.05.067.05.067.05.067.067.067.067.067.067.067.067.05.067.05.083.05.067.05.083.033.067.033.083.017.083.017.083.033.167.017.083.017.1v.2l-.117-.1Zm-5.921,1.7H61.351V68.038h4.887v1.4H62.969v1.017H65.9v1.318H62.969v1.051h3.319v1.4Zm-6.188,0H58.465V70.573l-.05.067-.05.083-.05.067-.05.067-.05.083-.05.067-.05.067-.05.083-.05.067-.05.067-.05.067-.05.083-.05.067-.05.067-.05.083-.05.067-.05.067-.05.083-.033.067-.05.067-.05.083-.05.067-.05.067-.05.083-.05.067-.033.067-.05.067-.05.083-.05.067-.05.067-.033.083-.05.067-.05.067-.05.083-.05.067h-.033l-.05-.083-.05-.067-.05-.083-.05-.067-.05-.083-.05-.067-.05-.083-.05-.067-.05-.083-.033-.067-.05-.083-.05-.067-.05-.083.083-.083-.05-.083-.05-.067-.05-.083-.05-.067-.05-.083-.05-.067-.033-.05-.05-.067-.05-.083-.05-.067-.05-.083-.05-.067-.05-.083-.033-.05-.05-.083-.05-.067-.05-.083-.05-.067-.05-.083-.05-.067v3.636h-1.6V68.021h1.735l.05.067.05.083.05.067.05.083.05.067.05.083.05.067.05.083.05.067.05.067.05.083.05.067.05.083.05.067.05.083.05.067.05.067.05.083.05.067.05.083.05.067.05.083.05.067.033.083.05.067.033.067.05.083.05.067.05.083.05.067.033.083.05.067.05.083.05.067.05-.067.05-.083.05-.067.05-.083.05-.067.05-.083.05-.067.05-.083.05-.067.033-.067.05-.083.05-.067.05-.083.05-.067.05-.083.05-.067.05-.083.05-.067.05-.067.05-.083.05-.067.05-.083.05-.067.05-.083.033-.067.05-.067.05-.083.05-.067.05-.083.05-.067.05-.083.05-.067.05-.083.05-.067H60.4v6.188l-.384.017Zm-9.808-2.552-.033-.083-.033-.083-.033-.083-.033-.083-.033-.083-.033-.083-.033-.083-.033-.083-.033-.083-.033-.083-.033-.083-.033-.083-.033-.083-.033-.083-.033-.083-.033-.083-.033-.083-.033-.083-.033-.083-.033-.083-.033-.083-.033-.083-.033.083-.033.083-.033.083-.033.083-.033.083-.033.083-.033.083-.033.083-.033.083-.033.083-.033.083-.033.083-.033.083-.033.083-.033.083-.033.083-.033.083-.033.083-.033.083-.033.083-.033.083-.033.083-.033.083h1.435l.067-.083Zm2.652,2.552H51.21l-.033-.083-.033-.083-.033-.083-.033-.083-.033-.083-.033-.083-.033-.083-.033-.083-.033-.083-.033-.083-.033-.083-.033-.083-.033-.083-.033-.083-.033-.083h-2.4l-.033.083-.033.083-.033.083-.033.083-.033.083-.067.15-.033.083-.033.083-.033.083-.033.083-.033.083-.033.083-.033.083-.033.083H46.139l.033-.083.067-.15.033-.083.033-.083.067-.15.033-.083.033-.083.033-.083.033-.05.033-.083.033-.083.033-.083.033-.083.033-.083.033-.083.033-.083.033-.083.033-.083.033-.083.033-.083.067-.15.033-.083.033-.083.033-.083.033-.083.033-.083.033-.083.033-.083.033-.083.033-.083.033-.083.033-.083.033-.083.033-.083.033-.083.033-.083.033-.083.033-.083.033-.083.033-.083.033-.083.033-.083.033-.083.033-.083.033-.083.033-.083.033-.083.033-.083.033-.083.033-.083.033-.083.033-.083.033-.083.067-.15.033-.083.033-.083.033-.083.033-.083.033-.083.033-.083.033-.083.033-.083.033-.083.033-.083.017-.083.033-.083.033-.083.033-.083.033-.083.033-.083.033-.083.033-.083.033-.083.067-.15.033-.083h1.568l.033.083.033.083.033.083.033.083.033.083.033.083.033.083.033.083.033.083.033.083.033.083.033.083.033.083.033.083.033.083.033.083.033.083.033.083.033.083.033.083.033.083.033.083.033.083.033.083.033.083.033.083.033.083.033.083.033.083.033.083.067.15.033.083.033.083.033.083.033.083.033.083.033.083.033.083.033.083.033.083.033.083.033.083.033.083.033.083.033.083.033.083.033.083.033.083.033.083.033.083.033.083.033.083.033.083.033.083.033.083.033.083.033.083.033.083.033.083.033.083.033.083.033.083.033.083.033.083.033.083.033.083.033.083.033.083.033.083.033.083.033.083.033.083.033.083.033.083.033.083.033.083.033.083.067.15-.167-.067Zm-7.406-.8-.067.05-.067.05-.067.05-.067.05-.067.05-.067.05-.067.05-.083.05-.083.05-.083.05-.083.033-.083.05-.083.033-.083.033-.083.033-.083.033-.083.033-.083.033-.083.033-.083.033-.083.033-.083.017-.083.017-.083.017-.083.017-.083.017-.1.017-.083.017-.1.017-.083.017-.1.017h-.267l-.083-.017-.1-.017-.083-.017-.083-.017-.083-.017-.083-.017-.083-.017-.083-.017-.083-.017-.083-.017-.083-.017-.083-.033-.083-.033-.083-.033-.083-.033-.083-.033-.083-.033-.083-.033-.083-.05L41,73.976l-.083-.05-.067-.05-.067-.05-.067-.05-.067-.05-.067-.05-.067-.05-.067-.05-.067-.067-.067-.05-.067-.067-.067-.067-.05-.067-.05-.067-.05-.067-.05-.067-.05-.067-.05-.067-.033-.067-.05-.083-.05-.067-.033-.083-.033-.083-.033-.083-.033-.083-.033-.067-.033-.083-.017-.083-.033-.083-.017-.083-.033-.083-.017-.083v-.083l-.017-.083v-.083l-.017-.083v-.717l.017-.1.017-.083.017-.083.017-.083.033-.083.017-.083.033-.083.033-.083.033-.083.033-.083.033-.083.033-.083.033-.083.033-.083.05-.083.05-.067.033-.067.05-.067.05-.067.05-.067.05-.067.05-.067.05-.067.067-.067.05-.067.067-.067.067-.067.067-.05.067-.067.067-.05.067-.05.067-.05.067-.05.067-.05.067-.05.083-.05.083-.05.083-.05.083-.033.083-.033L41.5,68l.067-.033.083-.033.083-.033.083-.017.083-.033.083-.017.083-.033.083-.017.083-.017.083-.017.083-.017.083-.017.083-.017.083-.017H43l.1.017.1.017h.083l.083.017.1.017.083.017.083.017.083.017.083.017.083.017.083.017.083.033.083.017.067.033.083.033.15.067.083.033.083.05.083.033.067.05.083.05.067.05.083.05.067.05.067.05.067.05.067.05.067.067.067.05-.05.067-.067.067-.05.067-.067.067L45.1,69l-.05.067-.067.067-.05.067-.05.067-.067.067-.05.067-.067.067-.05.067-.05.067-.067.067-.05.067-.067.067-.05.067-.067-.05-.067-.067-.067-.05-.067-.05-.067-.05-.067-.05-.067-.05-.083-.05-.067-.033-.067-.033-.067-.033-.083-.033-.083-.033-.083-.017-.083-.017-.083-.017-.083-.017-.1-.017-.1-.017h-.183l-.083.017-.083.017-.083.017-.083.017-.083.033-.083.033-.067.2-.083.033-.067.05-.067.05-.067.05-.067.05-.067.05-.067.05-.05.067-.067.067-.05.067-.05.067-.05.067-.033.083-.05.067-.033.083-.033.083-.033.083-.033.083-.017.083-.017.083-.017.1v.617l.017.083.017.083.017.083.033.083.1-.033.033.083.033.083.05.083.083.133.05.067.05.067.067.067.05.067.067.05.067.05.067.05.067.05.067.05.083.033.083.033.083.033.083.033.083.033.083.017.083.017.083.017.1.017H43l.1-.017.1-.017.083-.017.083-.017.083-.017.083-.017.083-.017.083-.033.067-.033.083-.033.067-.033.067-.05v-.834H42.753V70.623H45.5v2.769l-.05.033ZM42.736,54.043h3.67V51.207h-3.67V45.419h3.82V42.583H39.617V63.05h6.989V60.214h-3.87V54.043m26.255.617v4.62c0,.817-.384,1.2-1.168,1.2h-.584a1.049,1.049,0,0,1-1.2-1.2V46.353a1.049,1.049,0,0,1,1.2-1.2h.517c.784,0,1.168.384,1.168,1.2v4h3.052V46.17c0-2.535-1.218-3.77-3.753-3.77H66.706c-2.535,0-3.786,1.251-3.786,3.8V59.414c0,2.552,1.251,3.8,3.786,3.8H68.24c2.535,0,3.786-1.251,3.786-3.8V54.643H68.991M58.182,42.583H61.3V63.05H58.182Zm-4.52,9.091c0,.817-.384,1.2-1.168,1.2H51.21V45.336h1.284c.784,0,1.168.384,1.168,1.2Zm-.667-9.091H48.107V63.05h3.119V55.627h1.768c2.535,0,3.786-1.251,3.786-3.8V46.387C56.781,43.835,55.53,42.583,52.994,42.583ZM46.956,81.548H64.787l-9.091,3-8.74-3" transform="translate(-32.828 -34.578)" fill="#545454"/>
  </g>
</svg>
