<svg xmlns="http://www.w3.org/2000/svg" width="68.176" height="52.607" viewBox="0 0 68.176 52.607">
  <g id="ps" transform="translate(0)">
    <path id="Path_2" data-name="Path 2" d="M100.29,77.046a.7.7,0,0,1-.381.089h-.8v-.821h.854a.645.645,0,0,1,.28.052.347.347,0,0,1,.176.346A.387.387,0,0,1,100.29,77.046Zm.7,1.528c-.033-.01-.064-.055-.088-.125,0-.049-.013-.121-.02-.222l-.017-.37a.637.637,0,0,0-.1-.385.544.544,0,0,0-.17-.142.708.708,0,0,0,.334-.653.713.713,0,0,0-.429-.709,1.264,1.264,0,0,0-.548-.1H98.606v2.893h.5V77.575H99.9a.974.974,0,0,1,.313.043.332.332,0,0,1,.16.313l.024.461c.01.108.014.183.02.227a.4.4,0,0,0,.034.108l.02.035h.562V78.6l-.038-.021Z" transform="translate(-35.678 -27.451)" fill="#fff"/>
    <path id="Path_3" data-name="Path 3" d="M98.867,78.9a2.161,2.161,0,1,1,2.158-2.164A2.16,2.16,0,0,1,98.867,78.9Zm1.84-4a2.556,2.556,0,0,0-1.84-.768,2.6,2.6,0,0,0-1.837,4.439,2.595,2.595,0,0,0,4.433-1.84A2.6,2.6,0,0,0,100.707,74.906Z" transform="translate(-34.833 -26.825)" fill="#fff"/>
    <path id="Path_4" data-name="Path 4" d="M11.189,59.34A12.073,12.073,0,0,0,17.841,59L23.336,57v5.775l-1.092.18A36.033,36.033,0,0,1,5.119,61.581C-.259,60.068-1.157,56.916,1.295,55.1a26.269,26.269,0,0,1,6.121-2.941L23.336,46.5v6.448l-11.456,4.1C9.852,57.774,9.546,58.8,11.189,59.34Z" transform="translate(0 -16.824)" fill="#fff"/>
    <path id="Path_5" data-name="Path 5" d="M89.513,58.67c-1.334,1.68-4.594,2.881-4.594,2.881L60.646,70.269V63.842l17.863-6.369c2.027-.725,2.341-1.752.694-2.29a12.1,12.1,0,0,0-6.652.34l-11.9,4.2v-6.67l.683-.231A40.916,40.916,0,0,1,69.6,51.058,35.393,35.393,0,0,1,85.014,52.9c5.24,1.656,5.829,4.1,4.5,5.774Z" transform="translate(-21.943 -18.408)" fill="#fff"/>
    <path id="Path_6" data-name="Path 6" d="M55.465,29.316V12.876c0-1.925-.355-3.7-2.168-4.2-1.388-.452-2.246.841-2.246,2.766V52.607L39.943,49.081V0a134.381,134.381,0,0,1,15.3,4.188c9.4,3.233,12.589,7.251,12.589,16.3,0,8.823-5.447,12.171-12.37,8.827Z" transform="translate(-14.452)" fill="#fff"/>
  </g>
</svg>
