<svg id="steam-seeklogo.com" xmlns="http://www.w3.org/2000/svg" width="52.607" height="52.607" viewBox="0 0 52.607 52.607">
  <path id="Path_1" data-name="Path 1" d="M26.258,0A26.326,26.326,0,0,0,0,24.193l14.122,5.829a7.416,7.416,0,0,1,4.2-1.294q.21,0,.415.011l6.281-9.089v-.128a9.936,9.936,0,1,1,9.936,9.921c-.076,0-.15,0-.226,0l-8.958,6.378c.006.118.009.236.009.353a7.46,7.46,0,0,1-14.771,1.469L.906,33.471A26.342,26.342,0,1,0,26.258,0ZM16.512,39.911l-3.236-1.335a5.593,5.593,0,1,0,3.062-7.639l3.344,1.38a4.114,4.114,0,1,1-3.17,7.594ZM41.573,19.524a6.621,6.621,0,1,0-6.62,6.609A6.625,6.625,0,0,0,41.573,19.524ZM29.99,19.512a4.974,4.974,0,1,1,4.973,4.964A4.969,4.969,0,0,1,29.99,19.512Z" fill="#fff"/>
</svg>
