<svg xmlns="http://www.w3.org/2000/svg" width="52.607" height="52.607" viewBox="0 0 52.607 52.607">
  <path id="xbox-1" d="M11.718,4.468a4.062,4.062,0,0,1,.43-.362A25.6,25.6,0,0,1,26.309,0a26.151,26.151,0,0,1,13.5,3.738,6.639,6.639,0,0,1,1.473,1.191C37.475.73,26.278,9.747,26.278,9.747,22.411,6.758,18.844,4.726,16.2,4a5.108,5.108,0,0,0-4.481.473ZM45.6,8.433c-.11-.129-.239-.246-.356-.381a3.844,3.844,0,0,0-3.21-1.246c-.976.313-5.463,1.927-10.994,7.15A75.971,75.971,0,0,1,41.078,26.2c3.812,6.187,6.089,11.054,4.69,17.8A26.3,26.3,0,0,0,45.6,8.433Zm-9.5,20.408q-3.637-4.069-7.52-7.912c-.724-.718-1.492-1.473-2.3-2.253,0,0-1.215,1.215-2.787,2.811v-.006c-2.02,2.044-4.641,4.7-6.1,6.261C14.8,30.5,7.378,39.177,6.967,44.044c0,0-1.651-3.855,1.97-12.754,2.363-5.825,9.515-14.553,12.5-17.4a31.929,31.929,0,0,0-6.151-5.07l-.025-.006s-.043-.031-.092-.061A11.942,11.942,0,0,0,9.993,6.9,4.6,4.6,0,0,0,7.108,8.329,26.3,26.3,0,1,0,45.768,44c0-.006-.552-3.474-4.088-8.452-.841-1.16-3.873-4.794-5.586-6.7Z" transform="translate(0.001)" fill="#fff"/>
</svg>
