<svg xmlns="http://www.w3.org/2000/svg" width="179.076" height="30.71" viewBox="0 0 179.076 30.71"><g transform="translate(-714 -32.744)"><g transform="translate(706.715 110.137)"><path d="M7.721-31.682a.871.871,0,0,1-.432-.837.871.871,0,0,1,.581-.741L10-34a25.551,25.551,0,0,1,21.175,2l2.332,1.346a.691.691,0,0,1,.342.663.691.691,0,0,1-.461.587l-2.505.872a25.551,25.551,0,0,1-21.175-2Z" transform="translate(0 -23.682)" fill="rgba(1,119,253,0.4)" fill-rule="evenodd"/><path d="M17.738-57.131a.872.872,0,0,1,.043-.941.871.871,0,0,1,.873-.353L20.916-58A25.55,25.55,0,0,1,38.26-45.712L39.6-43.4a.691.691,0,0,1-.034.746.691.691,0,0,1-.692.279l-2.65-.5A25.55,25.55,0,0,1,18.882-55.159Z" transform="translate(-5.832 -10.694)" fill="rgba(1,119,253,0.7)" fill-rule="evenodd"/><path d="M40.521-76.521a.871.871,0,0,1,.507-.793.872.872,0,0,1,.932.13l1.718,1.471a25.55,25.55,0,0,1,8.929,19.365c0,1,0,1.9,0,2.593a.691.691,0,0,1-.4.628.691.691,0,0,1-.739-.1l-2.017-1.727a25.55,25.55,0,0,1-8.929-19.365C40.524-75.143,40.522-75.893,40.521-76.521Z" transform="translate(-18.753)" fill="#0177fd" fill-rule="evenodd"/><path d="M92.78-39.084a9.225,9.225,0,0,1-4.309-.99,7.413,7.413,0,0,1-2.984-2.747,7.494,7.494,0,0,1-1.074-3.988A7.494,7.494,0,0,1,85.487-50.8a7.413,7.413,0,0,1,2.984-2.747,9.225,9.225,0,0,1,4.309-.99,8.348,8.348,0,0,1,4.141.99,5.872,5.872,0,0,1,2.58,2.831L96.126-48.9a3.688,3.688,0,0,0-3.375-2.064,3.818,3.818,0,0,0-2.817,1.116,4.107,4.107,0,0,0-1.116,3.04,4.108,4.108,0,0,0,1.116,3.04,3.818,3.818,0,0,0,2.817,1.116,3.65,3.65,0,0,0,3.375-2.064L99.5-42.876a5.99,5.99,0,0,1-2.58,2.789A8.255,8.255,0,0,1,92.78-39.084Z" transform="translate(-43.519 -12.898)" fill="#1b1b1b"/><path d="M128.952-52.331a4.838,4.838,0,0,1,2.106-1.645,7.815,7.815,0,0,1,3.054-.558v4.016q-.725-.056-.976-.056a3.987,3.987,0,0,0-2.928,1.046,4.227,4.227,0,0,0-1.06,3.137v7.084H124.8v-15h4.155Z" transform="translate(-66.305 -12.898)" fill="#1b1b1b"/><path d="M157.5-39.084a9,9,0,0,1-4.253-.99,7.359,7.359,0,0,1-2.942-2.747,7.57,7.57,0,0,1-1.06-3.988A7.57,7.57,0,0,1,150.3-50.8a7.359,7.359,0,0,1,2.942-2.747,9,9,0,0,1,4.253-.99,8.914,8.914,0,0,1,4.239.99,7.381,7.381,0,0,1,2.928,2.747,7.57,7.57,0,0,1,1.06,3.988,7.57,7.57,0,0,1-1.06,3.988,7.381,7.381,0,0,1-2.928,2.747A8.915,8.915,0,0,1,157.5-39.084Zm0-3.57a3.624,3.624,0,0,0,2.747-1.129,4.21,4.21,0,0,0,1.074-3.026,4.21,4.21,0,0,0-1.074-3.026,3.624,3.624,0,0,0-2.747-1.129,3.668,3.668,0,0,0-2.761,1.129,4.178,4.178,0,0,0-1.088,3.026,4.179,4.179,0,0,0,1.088,3.026A3.669,3.669,0,0,0,157.5-42.653Z" transform="translate(-80.1 -12.898)" fill="#1b1b1b"/><path d="M199.532-39.084a9.226,9.226,0,0,1-4.309-.99,7.414,7.414,0,0,1-2.984-2.747,7.492,7.492,0,0,1-1.074-3.988,7.492,7.492,0,0,1,1.074-3.988,7.413,7.413,0,0,1,2.984-2.747,9.226,9.226,0,0,1,4.309-.99,8.347,8.347,0,0,1,4.141.99,5.872,5.872,0,0,1,2.58,2.831L202.878-48.9a3.688,3.688,0,0,0-3.375-2.064,3.818,3.818,0,0,0-2.817,1.116,4.107,4.107,0,0,0-1.116,3.04,4.107,4.107,0,0,0,1.116,3.04,3.818,3.818,0,0,0,2.817,1.116,3.65,3.65,0,0,0,3.375-2.064l3.375,1.841a5.99,5.99,0,0,1-2.58,2.789A8.255,8.255,0,0,1,199.532-39.084Z" transform="translate(-103.753 -12.898)" fill="#1b1b1b"/><path d="M246.556-54.022v15h-4.128V-40.8a5.771,5.771,0,0,1-2.064,1.492,6.494,6.494,0,0,1-2.594.516,6.39,6.39,0,0,1-4.685-1.7,6.782,6.782,0,0,1-1.729-5.048v-8.478h4.351v7.837q0,3.625,3.04,3.626a3.268,3.268,0,0,0,2.51-1.018,4.294,4.294,0,0,0,.948-3.026v-7.418Z" transform="translate(-126.431 -13.187)" fill="#1b1b1b"/><path d="M278.687-39.084a14.575,14.575,0,0,1-3.653-.46,9.543,9.543,0,0,1-2.845-1.157l1.45-3.124a9.129,9.129,0,0,0,2.426,1.046,10.169,10.169,0,0,0,2.789.4q2.761,0,2.761-1.367a.967.967,0,0,0-.753-.92,11.152,11.152,0,0,0-2.315-.474,22.343,22.343,0,0,1-3.04-.641,4.716,4.716,0,0,1-2.078-1.283,3.648,3.648,0,0,1-.878-2.622,4.105,4.105,0,0,1,.823-2.524,5.294,5.294,0,0,1,2.4-1.715,10.244,10.244,0,0,1,3.723-.614,14.611,14.611,0,0,1,3.165.349,8.847,8.847,0,0,1,2.608.962l-1.45,3.1a8.657,8.657,0,0,0-4.323-1.116,4.4,4.4,0,0,0-2.092.39,1.148,1.148,0,0,0-.7,1,1,1,0,0,0,.753.976,13.335,13.335,0,0,0,2.4.53,25.663,25.663,0,0,1,3.012.655,4.525,4.525,0,0,1,2.036,1.269,3.6,3.6,0,0,1,.865,2.566,3.962,3.962,0,0,1-.837,2.482,5.342,5.342,0,0,1-2.44,1.687A10.871,10.871,0,0,1,278.687-39.084Z" transform="translate(-149.47 -12.898)" fill="#1b1b1b"/><path d="M318.984-53.254a7.238,7.238,0,0,1,3.681.948,6.787,6.787,0,0,1,2.58,2.622,7.7,7.7,0,0,1,.934,3.821,7.784,7.784,0,0,1-.934,3.835,6.664,6.664,0,0,1-2.58,2.622,7.323,7.323,0,0,1-3.681.934,6.818,6.818,0,0,1-3.486-.906,6.283,6.283,0,0,1-2.426-2.524v8.729h-1.394V-53.142h1.339v3.43a6.354,6.354,0,0,1,2.44-2.608A6.786,6.786,0,0,1,318.984-53.254ZM318.9-39.728a5.867,5.867,0,0,0,3.012-.781,5.576,5.576,0,0,0,2.106-2.175,6.489,6.489,0,0,0,.767-3.179,6.489,6.489,0,0,0-.767-3.179,5.575,5.575,0,0,0-2.106-2.175A5.866,5.866,0,0,0,318.9-52a5.792,5.792,0,0,0-3,.781,5.6,5.6,0,0,0-2.092,2.175,6.489,6.489,0,0,0-.767,3.179,6.489,6.489,0,0,0,.767,3.179,5.605,5.605,0,0,0,2.092,2.175A5.793,5.793,0,0,0,318.9-39.728Z" transform="translate(-171.751 -13.62)" fill="#0177fd"/><path d="M357.96-53.254a5.8,5.8,0,0,1,4.155,1.38,5.343,5.343,0,0,1,1.45,4.058v9.231h-1.339v-2.594a4.844,4.844,0,0,1-2.036,1.994,6.751,6.751,0,0,1-3.207.711,5.912,5.912,0,0,1-3.835-1.143,3.689,3.689,0,0,1-1.408-3.012,3.717,3.717,0,0,1,1.3-2.942,6.23,6.23,0,0,1,4.141-1.129h4.992v-1.171a4.1,4.1,0,0,0-1.1-3.1,4.469,4.469,0,0,0-3.221-1.06,7.765,7.765,0,0,0-2.775.5,6.96,6.96,0,0,0-2.245,1.339l-.7-1a7.747,7.747,0,0,1,2.622-1.52A9.527,9.527,0,0,1,357.96-53.254Zm-.781,13.637a5.474,5.474,0,0,0,3.082-.837,5.088,5.088,0,0,0,1.91-2.426v-2.733h-4.964a4.94,4.94,0,0,0-3.11.781,2.615,2.615,0,0,0-.962,2.147,2.689,2.689,0,0,0,1.06,2.245A4.768,4.768,0,0,0,357.179-39.616Z" transform="translate(-194.356 -13.62)" fill="#0177fd"/><path d="M398.3-53,390.829-36.46a6.545,6.545,0,0,1-1.938,2.733,4.285,4.285,0,0,1-2.608.809,5.243,5.243,0,0,1-1.882-.335,4.007,4.007,0,0,1-1.492-.976l.7-1.06a3.639,3.639,0,0,0,2.705,1.143,2.864,2.864,0,0,0,1.813-.586,5.239,5.239,0,0,0,1.394-2.008L390.3-38.5,383.746-53h1.478l5.829,13.024L396.881-53Z" transform="translate(-211.943 -13.765)" fill="#0177fd"/></g></g></svg>